<?xml version="1.0" encoding="UTF-8"?>
<svg xmlns="http://www.w3.org/2000/svg" version="1.1" viewBox="0 0 754.4 145.8">
  <defs>
    <style>
      .cls-1 {
        fill-rule: evenodd;
      }
    </style>
  </defs>
  <!-- Generator: Adobe Illustrator 28.7.1, SVG Export Plug-In . SVG Version: 1.2.0 Build 142)  -->
  <g>
    <g id="Calque_1">
      <g>
        <path class="cls-1" d="M753,35.1c-8.5,10-18.1,18.8-28.5,26.8-15,11.5-31.3,21-48.7,28.5-20.2,8.8-41.1,14.9-63,17.6-10.6,1.3-21.2,2-31.9,1.4-8.4-.5-16.8-.9-25.2-1.8-11-1.3-21.8-3.4-32.4-6.5-21.8-6.4-41.9-16.3-60-30.2-11.9-9.1-22.3-19.6-31.1-31.7-1.4-2-2.8-4-4.2-5.9,4.4,25.6,17.9,45,39.7,59-1.3-.2-2.4-.6-3.5-.9-17.7-5-35.3-10.4-53.1-14.9-10.8-2.7-21.8-4.1-32.8-5.9-8.6-1.3-17.2-2.3-25.8-3.2-5.9-.6-11.8-1-17.7-1.3-11.4-.6-22.7-1.3-34.1-1.5-16.7-.3-33.3.2-49.9,1.9-7.1.7-14.3,1.4-21.4,2.6-7.8,1.3-15.5,3-23.2,4.7-4.3,1-8.5,2.3-12.7,3.5,0,.1,0,.3,0,.4,3-.4,6-.9,9-1.1,6.7-.6,13.4-1.2,20.1-1.7,9.3-.6,18.7-1.3,28-1.5,21.6-.4,43.1-.2,64.7,1.9,8.2.8,16.3,1.4,24.4,2.5,9.6,1.3,19.1,3,28.5,4.7,14.7,2.7,29.1,6.4,43.4,10.9,17.8,5.6,35.4,11.7,53.4,16.7,16.1,4.5,32.4,8.4,48.7,11.9,13.1,2.8,26.5,4.1,40,4.7,14.8.7,29.6.4,44.2-1.5,11.6-1.5,23.1-3.8,34.6-6.2,16.2-3.4,31.5-9.4,46.3-16.8,16-8,31-17.7,44.8-29.2,8.4-7,16.2-14.6,22.8-23.4,3.6-4.8,6.8-9.9,8.2-16.3-.6.8-.9,1.3-1.3,1.8Z"/>
        <path class="cls-1" d="M360.7,100c-9.6-2.4-18.6-4.6-27.7-6.8-1-.2-2.2-.3-3.1.1-17.9,8.8-36.9,13.4-56.4,16.4-8.8,1.3-17.7,2.2-26.7,2.8-8.7.6-17.4,1.1-26,.9-13.5-.3-26.9-1.2-40.3-2.1-9.1-.6-18.2-1.6-27.2-2.9-11.3-1.6-22.5-3.5-33.7-5.6-10.9-2.1-21.8-4.4-32.6-6.9-7.8-1.8-15.6-3.7-23.2-6.1-12.2-3.9-24.4-8-36.5-12.5-9.6-3.6-18.8-8.1-26.8-14.6-.2.1-.3.3-.5.4.5.6.9,1.5,1.5,1.9,3.6,2.5,7,5.2,10.8,7.3,22.2,12.5,45.9,21.4,70.2,29,15.4,4.8,31,8.9,46.8,12,10.7,2.1,21.4,4.1,32.2,5.9,6.9,1.2,13.8,2.1,20.7,2.9,7.1.8,14.3,1.5,21.5,2.1,7.8.6,15.6,1.3,23.4,1.5,16.5.5,32.9,0,49.2-2.1,10.2-1.4,20.3-3.1,30.3-5.2,17.4-3.6,34.2-9.1,50.4-16.6,1.2-.5,2.3-1.2,3.7-2Z"/>
        <path class="cls-1" d="M638.9,128.8c-7.2,1.4-14.4,3-21.7,4-12.4,1.7-24.8,3.4-37.2,4.3-11.1.8-22.2.8-33.4.4-9.1-.3-18.1-1.3-27.1-2.3-8.5-.9-17.1-1.9-25.5-3.4-9.4-1.6-18.7-3.5-28-5.5-16.4-3.5-32.9-6.9-49.2-10.8-15.7-3.8-31.3-8.2-47-12.4-.7-.2-1.6-.1-2.3.1-5.5,2.2-10.9,4.5-16.3,6.8-2,.9-4.1,1.7-6.6,2.9,7.9,2.1,15,4.2,22.3,5.9,19.8,4.5,39.5,9,59.4,13.2,11.3,2.4,22.6,4.4,34,6.3,8.9,1.5,17.9,2.6,26.8,4.2,11.8,2.1,23.8,2.9,35.8,3.1,14.6.2,29.3.5,43.8-1.2,7.7-.9,15.5-1.6,23.1-3,10.5-1.9,20.8-4.3,31.2-6.8,6.4-1.5,12.7-3.6,19-5.5,0-.1-.1-.3-.2-.4-.3,0-.7,0-1,0Z"/>
        <path class="cls-1" d="M385.8,56.8c7.4,0,14.8,0,22.2-.7,6.3-.6,10.5-4,10.6-10.9,0-2.2,0-4.5,0-6.7-.1-3.3-.8-6.5-3.7-8.5-1.5-1-3.2-1.7-5.1-2.6,1.1-.4,2.1-.7,3-1.2,2.5-1.1,4.6-2.9,4.9-5.5.4-4.4.6-8.9-.1-13.2-.8-4.9-5.3-7.5-11-7.5-16.9,0-33.9,0-50.8,0h-2.1v56.7c.4,0,.6.2.8.2,10.5,0,20.9,0,31.4,0ZM367.4,9.3h3.1c9.6,0,19.1,0,28.7,0,3.9,0,5.3,1.5,5.4,5.4,0,.8,0,1.6,0,2.4,0,4.3-1.2,5.4-5.2,5.5-10.6.3-21.1,0-31.9,0v-13.4ZM367.3,32.5c.2-.1.4-.3.6-.3,10.8,0,21.7,0,32.5,0,3.1,0,4.4,1.5,4.5,4.5,0,1.7,0,3.4,0,5.1,0,2.6-1.1,3.8-3.6,4.3-.7.2-1.5.3-2.2.3-10.2,0-20.5,0-30.7,0-.3,0-.6,0-1.1-.1v-13.9Z"/>
        <path class="cls-1" d="M448.2,50.8c1.6,4.6,5.6,5.6,9.7,5.7,8.6.2,17.3,0,25.9,0,8.8,0,17.6.3,26.3-.1,7.6-.4,10.2-3,10.5-10,.5-12.1.4-24.2,0-36.2-.2-6.8-2.4-8.5-7.8-9.8-1.8-.4-3.6-.5-5.4-.5-15.8,0-31.6,0-47.4,0-2.1,0-4.3.3-6.3.9-2.8.7-4.8,2.4-5.6,5.3-.5,1.9-.9,4-.9,6,0,10.9,0,21.7,0,32.6,0,2,.4,4.2,1.1,6.1ZM461.3,10.6h45.3v35.1h-45.3V10.6Z"/>
        <path class="cls-1" d="M287.3,46.2h-47.4v-13.9h26.9v-10.1h-26.9v-12.2h46.7V.2h-60.8v56.5h61.5v-10.5Z"/>
        <path class="cls-1" d="M105.9,96.3c4.6.8,9.2,1.7,13.8,2.5,4.1.7,8.2,1.5,12.5.9,8.8-1.4,17.6-2.6,26.5-3.6,9.1-1,18.2-1.9,27.3-2.4,11.4-.7,22.9-1.1,34.3-1.3,18.5-.2,37,.5,55.4,2.8,7.4.9,14.8,2.2,22.3,3.2,1.2.2,2.5.1,3.7-.3,4.7-1.7,9.4-3.6,14.1-5.4,2.1-.8,4.1-1.6,6.2-2.4-72.7-13.3-144.8-9.7-217.1,5.2.6.5.7.7.9.7Z"/>
        <path class="cls-1" d="M551.4,65.2c.5,0,1.2-.8,1.5-1.3,1.8-3.1,3.6-6.3,5.4-9.5.6-1.2,1.5-1.7,2.9-1.7,11.4,0,22.8,0,34.2,0,.8,0,1.9.7,2.3,1.3,1.7,2.7,3.4,5.3,4.7,8.2,1.1,2.4,2.5,3.2,5.1,3,3.9-.2,7.8,0,12,0-.5-1-.8-1.6-1.2-2.2-10.7-17.7-21.4-35.5-32.1-53.2-.4-.7-1.5-1.3-2.3-1.3-3.3-.1-6.6,0-9.9,0-1.2,0-1.9.3-2.6,1.4-9.2,15.6-18.5,31.2-27.8,46.8-1.6,2.7-3.2,5.5-5,8.6,4.6,0,8.7,0,12.9,0ZM578,18.7c4.5,8,8.8,15.7,13.3,23.7h-26c4.3-7.9,8.4-15.6,12.7-23.7Z"/>
        <path class="cls-1" d="M554.1,86.5c-11.4-2-22.6-4.9-33.2-9.8,4.4,4.6,10.3,8.4,18.1,11.9,16.6,7.4,34.1,10.2,52.1,10.9,13.8.6,27.6.2,41.3-2.3,12.9-2.4,25.4-6.2,36.8-12.9,8.7-5.1,16.3-11.4,21.4-20.3,2.5-4.4,4.1-9,3.9-14.2-.1-2.7-.7-5.3-2.3-7.6-.9,2.9-1.4,5.9-2.6,8.5-4,9.4-11.1,16-19.7,21.2-14.8,8.9-31.2,12.7-48,15-7.4,1-14.8,1.5-22.3,2.1-15.2,1.1-30.4,0-45.4-2.6Z"/>
        <path class="cls-1" d="M652.8,13c0,13.8,0,27.7,0,41.5,0,.5-.1,1,0,1.4.2.4.6,1,.9,1,4.3,0,8.6,0,13.2,0V10.1h27.3V.1h-68.8v10h27.3v2.9Z"/>
        <path class="cls-1" d="M159.6,69.9h13.9V23.4h27.4v-10h-68.7v10h27.4v46.5Z"/>
        <path class="cls-1" d="M71.4,46.6H26.9V.6h-13.8v56.5h58.4v-10.5Z"/>
        <path class="cls-1" d="M107.6,9.9h-13.5v56.7h13.5V9.9Z"/>
        <path class="cls-1" d="M82.5,106.3c-.8-.2-1.8-.2-2.6,0-3.5,1-6.9,2.1-10.3,3.3-15.7,5.5-31,12-45.9,19.3-1.6.8-3.3,1.6-4.9,2.4-1.5.8-3.1,1.6-4.6,2.4,27.5-9.7,55-18.8,84.3-23-.6-.3-.9-.5-1.2-.5-5-1.3-10-2.6-15-3.9Z"/>
      </g>
    </g>
  </g>
</svg>